<?xml version="1.0" encoding="UTF-8" standalone="no"?>
<svg
   xmlns:dc="http://purl.org/dc/elements/1.1/"
   xmlns:cc="http://creativecommons.org/ns#"
   xmlns:rdf="http://www.w3.org/1999/02/22-rdf-syntax-ns#"
   xmlns:svg="http://www.w3.org/2000/svg"
   xmlns="http://www.w3.org/2000/svg"
   xmlns:sodipodi="http://sodipodi.sourceforge.net/DTD/sodipodi-0.dtd"
   xmlns:inkscape="http://www.inkscape.org/namespaces/inkscape"
   enable-background="new 0 0 1000 1000"
   version="1.1"
   viewBox="0 0 1000 1000"
   xml:space="preserve"
   id="svg3963"
   sodipodi:docname="bulb-on.svg"
   inkscape:version="0.92.3 (2405546, 2018-03-11)"><metadata
   id="metadata3969"><rdf:RDF><cc:Work
       rdf:about=""><dc:format>image/svg+xml</dc:format><dc:type
         rdf:resource="http://purl.org/dc/dcmitype/StillImage" /><dc:title></dc:title></cc:Work></rdf:RDF></metadata><defs
   id="defs3967" /><sodipodi:namedview
   pagecolor="#ffffff"
   bordercolor="#666666"
   borderopacity="1"
   objecttolerance="10"
   gridtolerance="10"
   guidetolerance="10"
   inkscape:pageopacity="0"
   inkscape:pageshadow="2"
   inkscape:window-width="1920"
   inkscape:window-height="1021"
   id="namedview3965"
   showgrid="false"
   inkscape:zoom="0.82"
   inkscape:cx="317.07317"
   inkscape:cy="523.32893"
   inkscape:window-x="0"
   inkscape:window-y="0"
   inkscape:window-maximized="1"
   inkscape:current-layer="svg3963" />
	<path
   d="m 398.62221,947.33777 c 22.80272,27.68669 58.68112,45.61106 99.18384,45.61106 40.50273,0 76.38113,-17.92437 99.18385,-45.61106 z"
   id="path3861"
   inkscape:connector-curvature="0"
   style="fill:#231f20;stroke-width:1.5974884" />
		<radialGradient
   id="t"
   cx="744.48"
   cy="750.02"
   r="95.256"
   gradientTransform="matrix(1.6446658,0.21989311,-0.05249089,0.36456804,-689.18214,451.90611)"
   gradientUnits="userSpaceOnUse">
		<stop
   stop-color="#58595B"
   offset="0"
   id="stop3863" />
		<stop
   stop-color="#302D2F"
   offset="1"
   id="stop3865" />
	</radialGradient>
	<path
   d="m 611.02234,909.56865 h -230.2596 c -8.61081,0 -15.62703,-7.0417 -15.62703,-15.68379 v -9.60232 c 0,-8.64208 7.01622,-15.68378 15.62703,-15.68378 h 230.2596 c 8.61081,0 15.62703,7.0417 15.62703,15.68378 v 9.44228 c 0.15946,8.80213 -7.01622,15.84383 -15.62703,15.84383 z"
   stroke-miterlimit="10"
   id="path3868"
   style="fill:url(#t);stroke:#231f20;stroke-width:0.81487882;stroke-miterlimit:10"
   inkscape:connector-curvature="0" />
		<radialGradient
   id="u"
   cx="739.41"
   cy="775.66"
   r="52.209"
   gradientTransform="matrix(1.691228,0,0,1.6003865,-755.47266,-311.20619)"
   gradientUnits="userSpaceOnUse">
		<stop
   stop-color="#58595B"
   offset="0"
   id="stop3870" />
		<stop
   stop-color="#302D2F"
   offset="1"
   id="stop3872" />
	</radialGradient>
	<path
   d="m 602.25206,950.69859 h -214.4731 c -8.61081,0 -15.62703,-7.04171 -15.62703,-15.68379 v -9.44228 c 0,-8.64209 7.01622,-15.68379 15.62703,-15.68379 h 214.4731 c 8.61082,0 15.62704,7.0417 15.62704,15.68379 v 9.44228 c 0.15946,8.48205 -7.01622,15.68379 -15.62704,15.68379 z"
   stroke-miterlimit="10"
   id="path3875"
   style="fill:url(#u);stroke:#231f20;stroke-width:0.81487882;stroke-miterlimit:10"
   inkscape:connector-curvature="0" />
		<radialGradient
   id="v"
   cx="739.41"
   cy="411.11"
   r="467.27"
   fx="737.99"
   fy="410.61"
   gradientTransform="matrix(0.67323822,-1.4507504,1.0873547,0.50828275,-473.43018,1210.4893)"
   gradientUnits="userSpaceOnUse">
		<stop
   stop-color="#FFF100"
   offset="0"
   id="stop3877" />
		<stop
   stop-color="#FAAF40"
   offset="1"
   id="stop3879" />
	</radialGradient>
	<path
   d="M 205.83562,265.25304 C 207.9086,117.37732 342.01408,-0.73121777 505.46011,1.5093233 668.90615,3.7498648 799.82245,125.53929 797.74947,273.41501 c -0.79729,57.61391 -21.52704,110.74674 -56.44868,153.95718 -31.09461,38.56932 -63.14598,249.82034 -113.37574,358.00647 -37.95137,81.61971 -90.41357,7.68185 -133.30819,7.20174 -42.73516,-0.64016 -96.9514,72.33747 -132.51088,-9.76236 C 314.58704,673.19156 288.27621,460.66023 258.13835,421.13068 224.49239,376.63994 205.03832,322.86695 205.83562,265.25304 Z"
   id="path3882"
   style="fill:url(#v);stroke-width:1.5974884"
   inkscape:connector-curvature="0" />
	<linearGradient
   id="w"
   x1="843.92"
   x2="807.67"
   y1="245.57"
   y2="314.05"
   gradientUnits="userSpaceOnUse"
   gradientTransform="matrix(1.5945955,0,0,1.6003865,-707.70815,-311.20619)">
		<stop
   stop-color="#fff"
   stop-opacity=".4"
   offset="0"
   id="stop3884" />
		<stop
   stop-color="#fff"
   stop-opacity="0"
   offset="1"
   id="stop3886" />
	</linearGradient>
	<path
   d="m 434.02223,65.204706 c 0,0 322.74614,66.576084 284.79476,266.304334 0,0.16004 123.4217,-278.307233 -284.79476,-266.304334 z"
   id="path3889"
   style="fill:url(#w);stroke-width:1.5974884"
   inkscape:connector-curvature="0" />
		<radialGradient
   id="x"
   cx="746.35"
   cy="724.39"
   r="90.386"
   gradientTransform="matrix(1.6325469,0.22021318,-0.05329617,0.37256998,-683.89446,413.86492)"
   gradientUnits="userSpaceOnUse">
		<stop
   stop-color="#58595B"
   offset="0"
   id="stop3891" />
		<stop
   stop-color="#302D2F"
   offset="1"
   id="stop3893" />
	</radialGradient>
	<path
   d="M 618.03856,868.59876 H 373.74652 c -8.61081,0 -15.62703,-7.0417 -15.62703,-15.68379 v -9.44228 c 0,-8.64209 7.01622,-15.68379 15.62703,-15.68379 h 244.29204 c 8.61081,0 15.62703,7.0417 15.62703,15.68379 v 9.44228 c 0.15946,8.64209 -7.01622,15.68379 -15.62703,15.68379 z"
   stroke-miterlimit="10"
   id="path3896"
   style="fill:url(#x);stroke:#231f20;stroke-width:0.81487882;stroke-miterlimit:10"
   inkscape:connector-curvature="0" />
		<radialGradient
   id="y"
   cx="731.09"
   cy="673.12"
   r="85.893"
   gradientTransform="matrix(1.7540551,0.1685207,-0.03065929,0.26262342,-766.78791,466.02152)"
   gradientUnits="userSpaceOnUse">
		<stop
   stop-color="#58595B"
   offset="0"
   id="stop3898" />
		<stop
   stop-color="#302D2F"
   offset="1"
   id="stop3900" />
	</radialGradient>
	<path
   d="M 631.2737,786.49893 H 358.59787 c -8.61081,0 -15.62703,-7.0417 -15.62703,-15.68379 v -9.44228 c 0,-8.64209 7.01622,-15.68379 15.62703,-15.68379 H 631.2737 c 8.61082,0 15.62704,7.0417 15.62704,15.68379 v 9.44228 c 0.15946,8.64209 -7.01622,15.68379 -15.62704,15.68379 z"
   stroke-miterlimit="10"
   id="path3903"
   style="fill:url(#y);stroke:#231f20;stroke-width:0.81487882;stroke-miterlimit:10"
   inkscape:connector-curvature="0" />
		<radialGradient
   id="z"
   cx="742.35"
   cy="698.75"
   r="85.893"
   gradientTransform="matrix(1.6669901,0.1685207,-0.02913645,0.26262342,-720.5869,498.41334)"
   gradientUnits="userSpaceOnUse">
		<stop
   stop-color="#58595B"
   offset="0"
   id="stop3905" />
		<stop
   stop-color="#302D2F"
   offset="1"
   id="stop3907" />
	</radialGradient>
	<path
   d="M 625.3737,827.62886 H 367.84652 c -8.61081,0 -15.62703,-7.0417 -15.62703,-15.68379 v -9.44228 c 0,-8.64208 7.01622,-15.68379 15.62703,-15.68379 H 625.3737 c 8.61081,0 15.62703,7.04171 15.62703,15.68379 v 9.44228 c 0,8.48205 -7.01622,15.68379 -15.62703,15.68379 z"
   stroke-miterlimit="10"
   id="path3910"
   style="fill:url(#z);stroke:#231f20;stroke-width:0.81487882;stroke-miterlimit:10"
   inkscape:connector-curvature="0" />
	
		<radialGradient
   id="aa"
   cx="302.31"
   cy="750.02"
   r="95.256"
   gradientTransform="matrix(1.0314 .1374 -.032918 .2278 7.248 537.6)"
   gradientUnits="userSpaceOnUse">
		<stop
   stop-color="#58595B"
   offset="0"
   id="stop3914" />
		<stop
   stop-color="#302D2F"
   offset="1"
   id="stop3916" />
	</radialGradient>
	
		<radialGradient
   id="ab"
   cx="305.27"
   cy="775.66"
   r="52.209"
   gradientTransform="matrix(1.0606 0 0 1 -29.954 0)"
   gradientUnits="userSpaceOnUse">
		<stop
   stop-color="#58595B"
   offset="0"
   id="stop3921" />
		<stop
   stop-color="#302D2F"
   offset="1"
   id="stop3923" />
	</radialGradient>
	
		<radialGradient
   id="o"
   cx="278.97"
   cy="411.11"
   r="467.27"
   fx="277.55"
   fy="410.61"
   gradientTransform="matrix(.4222 -.9065 .6819 .3176 -119.13 533.44)"
   gradientUnits="userSpaceOnUse">
		<stop
   stop-color="#fff"
   offset="0"
   id="stop3928" />
		<stop
   stop-color="#BCBEC0"
   offset="1"
   id="stop3930" />
	</radialGradient>
	
	<linearGradient
   id="p"
   x1="383.49"
   x2="347.23"
   y1="245.57"
   y2="314.05"
   gradientUnits="userSpaceOnUse">
		<stop
   stop-color="#fff"
   stop-opacity=".4"
   offset="0"
   id="stop3935" />
		<stop
   stop-color="#fff"
   stop-opacity="0"
   offset="1"
   id="stop3937" />
	</linearGradient>
	
		<radialGradient
   id="q"
   cx="300.87"
   cy="724.39"
   r="90.386"
   gradientTransform="matrix(1.0238 .1376 -.033423 .2328 10.556 514.34)"
   gradientUnits="userSpaceOnUse">
		<stop
   stop-color="#58595B"
   offset="0"
   id="stop3942" />
		<stop
   stop-color="#302D2F"
   offset="1"
   id="stop3944" />
	</radialGradient>
	
		<radialGradient
   id="r"
   cx="314.86"
   cy="673.12"
   r="85.893"
   gradientTransform="matrix(1.1 .1053 -.019227 .1641 -39.611 529.49)"
   gradientUnits="userSpaceOnUse">
		<stop
   stop-color="#58595B"
   offset="0"
   id="stop3949" />
		<stop
   stop-color="#302D2F"
   offset="1"
   id="stop3951" />
	</radialGradient>
	
		<radialGradient
   id="s"
   cx="304.36"
   cy="698.75"
   r="85.893"
   gradientTransform="matrix(1.0454 .1053 -.018272 .1641 -10.638 552.02)"
   gradientUnits="userSpaceOnUse">
		<stop
   stop-color="#58595B"
   offset="0"
   id="stop3956" />
		<stop
   stop-color="#302D2F"
   offset="1"
   id="stop3958" />
	</radialGradient>
	
</svg>